<mxfile host="Electron" agent="Mozilla/5.0 (Windows NT 10.0; Win64; x64) AppleWebKit/537.36 (KHTML, like Gecko) draw.io/24.7.17 Chrome/128.0.6613.36 Electron/32.0.1 Safari/537.36" version="24.7.17">
  <diagram id="C5RBs43oDa-KdzZeNtuy" name="Page-1">
    <mxGraphModel dx="1434" dy="836" grid="1" gridSize="10" guides="1" tooltips="1" connect="1" arrows="1" fold="1" page="1" pageScale="1" pageWidth="827" pageHeight="1169" math="0" shadow="0">
      <root>
        <mxCell id="WIyWlLk6GJQsqaUBKTNV-0" />
        <mxCell id="WIyWlLk6GJQsqaUBKTNV-1" parent="WIyWlLk6GJQsqaUBKTNV-0" />
        <mxCell id="Bi12gaVqoK5WJrq5ELlC-0" value="sdrive_logins" style="swimlane;whiteSpace=wrap;html=1;fillColor=#dae8fc;gradientColor=#7ea6e0;strokeColor=#6c8ebf;container=0;strokeWidth=2;" vertex="1" parent="WIyWlLk6GJQsqaUBKTNV-1">
          <mxGeometry x="200" y="50" width="640" height="980" as="geometry" />
        </mxCell>
        <mxCell id="Bi12gaVqoK5WJrq5ELlC-1" value="google_auth_secret" style="text;strokeColor=#23445d;fillColor=#bac8d3;align=left;verticalAlign=middle;spacingLeft=4;spacingRight=4;overflow=hidden;points=[[0,0.5],[1,0.5]];portConstraint=eastwest;rotatable=0;whiteSpace=wrap;html=1;strokeWidth=2;container=0;" vertex="1" parent="Bi12gaVqoK5WJrq5ELlC-0">
          <mxGeometry x="400" y="705" width="210" height="30" as="geometry" />
        </mxCell>
        <mxCell id="Bi12gaVqoK5WJrq5ELlC-2" value="members_storages" style="swimlane;fontStyle=0;childLayout=stackLayout;horizontal=1;startSize=30;horizontalStack=0;resizeParent=1;resizeParentMax=0;resizeLast=0;collapsible=1;marginBottom=0;whiteSpace=wrap;html=1;strokeWidth=2;fillColor=#9AC7BF;strokeColor=#82b366;container=0;" vertex="1" parent="Bi12gaVqoK5WJrq5ELlC-0">
          <mxGeometry x="400" y="775" width="210" height="90" as="geometry" />
        </mxCell>
        <mxCell id="Bi12gaVqoK5WJrq5ELlC-3" value="id_pass_codes" style="text;strokeColor=#82b366;fillColor=#9AC7BF;align=left;verticalAlign=middle;spacingLeft=4;spacingRight=4;overflow=hidden;points=[[0,0.5],[1,0.5]];portConstraint=eastwest;rotatable=0;whiteSpace=wrap;html=1;strokeWidth=2;container=0;" vertex="1" parent="Bi12gaVqoK5WJrq5ELlC-0">
          <mxGeometry x="400" y="805" width="210" height="30" as="geometry" />
        </mxCell>
        <mxCell id="Bi12gaVqoK5WJrq5ELlC-4" value="safeid_pass_codes" style="text;strokeColor=#82b366;fillColor=#9AC7BF;align=left;verticalAlign=middle;spacingLeft=4;spacingRight=4;overflow=hidden;points=[[0,0.5],[1,0.5]];portConstraint=eastwest;rotatable=0;whiteSpace=wrap;html=1;strokeWidth=2;container=0;" vertex="1" parent="Bi12gaVqoK5WJrq5ELlC-0">
          <mxGeometry x="400" y="835" width="210" height="30" as="geometry" />
        </mxCell>
        <mxCell id="Bi12gaVqoK5WJrq5ELlC-5" value="code_pass_codes" style="text;strokeColor=#82b366;fillColor=#9AC7BF;align=left;verticalAlign=middle;spacingLeft=4;spacingRight=4;overflow=hidden;points=[[0,0.5],[1,0.5]];portConstraint=eastwest;rotatable=0;whiteSpace=wrap;html=1;strokeWidth=2;container=0;" vertex="1" parent="Bi12gaVqoK5WJrq5ELlC-0">
          <mxGeometry x="400" y="865" width="210" height="30" as="geometry" />
        </mxCell>
        <mxCell id="Bi12gaVqoK5WJrq5ELlC-6" style="edgeStyle=orthogonalEdgeStyle;rounded=0;orthogonalLoop=1;jettySize=auto;html=1;entryX=0;entryY=0.5;entryDx=0;entryDy=0;" edge="1" parent="WIyWlLk6GJQsqaUBKTNV-1" source="Bi12gaVqoK5WJrq5ELlC-54" target="Bi12gaVqoK5WJrq5ELlC-29">
          <mxGeometry relative="1" as="geometry">
            <Array as="points">
              <mxPoint x="230" y="495" />
              <mxPoint x="230" y="990" />
            </Array>
          </mxGeometry>
        </mxCell>
        <mxCell id="Bi12gaVqoK5WJrq5ELlC-7" style="edgeStyle=orthogonalEdgeStyle;rounded=0;orthogonalLoop=1;jettySize=auto;html=1;" edge="1" parent="WIyWlLk6GJQsqaUBKTNV-1" source="Bi12gaVqoK5WJrq5ELlC-65" target="Bi12gaVqoK5WJrq5ELlC-30">
          <mxGeometry relative="1" as="geometry">
            <Array as="points">
              <mxPoint x="570" y="560" />
              <mxPoint x="570" y="960" />
            </Array>
          </mxGeometry>
        </mxCell>
        <mxCell id="Bi12gaVqoK5WJrq5ELlC-8" style="edgeStyle=orthogonalEdgeStyle;rounded=0;orthogonalLoop=1;jettySize=auto;html=1;entryX=1;entryY=0.5;entryDx=0;entryDy=0;fillColor=#f8cecc;gradientColor=#ea6b66;strokeColor=#b85450;strokeWidth=2;" edge="1" parent="WIyWlLk6GJQsqaUBKTNV-1" source="Bi12gaVqoK5WJrq5ELlC-43" target="Bi12gaVqoK5WJrq5ELlC-32">
          <mxGeometry relative="1" as="geometry">
            <Array as="points">
              <mxPoint x="530" y="710" />
              <mxPoint x="530" y="780" />
            </Array>
          </mxGeometry>
        </mxCell>
        <mxCell id="Bi12gaVqoK5WJrq5ELlC-9" style="edgeStyle=orthogonalEdgeStyle;rounded=0;orthogonalLoop=1;jettySize=auto;html=1;entryX=0;entryY=0.5;entryDx=0;entryDy=0;" edge="1" parent="WIyWlLk6GJQsqaUBKTNV-1" source="Bi12gaVqoK5WJrq5ELlC-54" target="Bi12gaVqoK5WJrq5ELlC-22">
          <mxGeometry relative="1" as="geometry">
            <Array as="points">
              <mxPoint x="230" y="495" />
              <mxPoint x="230" y="295" />
            </Array>
          </mxGeometry>
        </mxCell>
        <mxCell id="Bi12gaVqoK5WJrq5ELlC-10" style="edgeStyle=orthogonalEdgeStyle;rounded=0;orthogonalLoop=1;jettySize=auto;html=1;" edge="1" parent="WIyWlLk6GJQsqaUBKTNV-1" source="Bi12gaVqoK5WJrq5ELlC-64" target="Bi12gaVqoK5WJrq5ELlC-61">
          <mxGeometry relative="1" as="geometry">
            <Array as="points">
              <mxPoint x="550" y="530" />
              <mxPoint x="550" y="405" />
            </Array>
          </mxGeometry>
        </mxCell>
        <mxCell id="Bi12gaVqoK5WJrq5ELlC-11" style="edgeStyle=orthogonalEdgeStyle;rounded=0;orthogonalLoop=1;jettySize=auto;html=1;entryX=1;entryY=0.5;entryDx=0;entryDy=0;" edge="1" parent="WIyWlLk6GJQsqaUBKTNV-1" source="Bi12gaVqoK5WJrq5ELlC-64" target="Bi12gaVqoK5WJrq5ELlC-53">
          <mxGeometry relative="1" as="geometry">
            <Array as="points">
              <mxPoint x="550" y="530" />
              <mxPoint x="550" y="435" />
            </Array>
          </mxGeometry>
        </mxCell>
        <mxCell id="Bi12gaVqoK5WJrq5ELlC-12" style="edgeStyle=orthogonalEdgeStyle;rounded=0;orthogonalLoop=1;jettySize=auto;html=1;entryX=1;entryY=0.5;entryDx=0;entryDy=0;fillColor=#f8cecc;gradientColor=#ea6b66;strokeColor=#b85450;strokeWidth=2;" edge="1" parent="WIyWlLk6GJQsqaUBKTNV-1" source="Bi12gaVqoK5WJrq5ELlC-43" target="Bi12gaVqoK5WJrq5ELlC-59">
          <mxGeometry relative="1" as="geometry">
            <Array as="points">
              <mxPoint x="530" y="710" />
              <mxPoint x="530" y="605" />
            </Array>
          </mxGeometry>
        </mxCell>
        <mxCell id="Bi12gaVqoK5WJrq5ELlC-13" style="edgeStyle=orthogonalEdgeStyle;rounded=0;orthogonalLoop=1;jettySize=auto;html=1;entryX=1;entryY=0.5;entryDx=0;entryDy=0;fillColor=#f8cecc;gradientColor=#ea6b66;strokeColor=#b85450;strokeWidth=2;" edge="1" parent="WIyWlLk6GJQsqaUBKTNV-1" source="Bi12gaVqoK5WJrq5ELlC-43" target="Bi12gaVqoK5WJrq5ELlC-57">
          <mxGeometry relative="1" as="geometry">
            <Array as="points">
              <mxPoint x="530" y="710" />
              <mxPoint x="530" y="635" />
            </Array>
          </mxGeometry>
        </mxCell>
        <mxCell id="Bi12gaVqoK5WJrq5ELlC-14" style="edgeStyle=orthogonalEdgeStyle;rounded=0;orthogonalLoop=1;jettySize=auto;html=1;entryX=1;entryY=0.5;entryDx=0;entryDy=0;fillColor=#f8cecc;gradientColor=#ea6b66;strokeColor=#b85450;strokeWidth=2;" edge="1" parent="WIyWlLk6GJQsqaUBKTNV-1" source="Bi12gaVqoK5WJrq5ELlC-43" target="Bi12gaVqoK5WJrq5ELlC-63">
          <mxGeometry relative="1" as="geometry">
            <Array as="points">
              <mxPoint x="530" y="710" />
              <mxPoint x="530" y="175" />
            </Array>
          </mxGeometry>
        </mxCell>
        <mxCell id="Bi12gaVqoK5WJrq5ELlC-15" style="edgeStyle=orthogonalEdgeStyle;rounded=0;orthogonalLoop=1;jettySize=auto;html=1;entryX=1;entryY=0.5;entryDx=0;entryDy=0;fillColor=#f8cecc;gradientColor=#ea6b66;strokeColor=#b85450;strokeWidth=2;" edge="1" parent="WIyWlLk6GJQsqaUBKTNV-1" source="Bi12gaVqoK5WJrq5ELlC-43" target="Bi12gaVqoK5WJrq5ELlC-20">
          <mxGeometry relative="1" as="geometry">
            <Array as="points">
              <mxPoint x="530" y="710" />
              <mxPoint x="530" y="205" />
            </Array>
          </mxGeometry>
        </mxCell>
        <mxCell id="Bi12gaVqoK5WJrq5ELlC-16" style="edgeStyle=orthogonalEdgeStyle;rounded=0;orthogonalLoop=1;jettySize=auto;html=1;" edge="1" parent="WIyWlLk6GJQsqaUBKTNV-1" source="Bi12gaVqoK5WJrq5ELlC-64" target="Bi12gaVqoK5WJrq5ELlC-47">
          <mxGeometry relative="1" as="geometry">
            <Array as="points">
              <mxPoint x="550" y="530" />
              <mxPoint x="550" y="345" />
            </Array>
          </mxGeometry>
        </mxCell>
        <mxCell id="Bi12gaVqoK5WJrq5ELlC-17" style="edgeStyle=orthogonalEdgeStyle;rounded=0;orthogonalLoop=1;jettySize=auto;html=1;fillColor=#f8cecc;gradientColor=#ea6b66;strokeColor=#b85450;strokeWidth=2;" edge="1" parent="WIyWlLk6GJQsqaUBKTNV-1" source="Bi12gaVqoK5WJrq5ELlC-43" target="Bi12gaVqoK5WJrq5ELlC-48">
          <mxGeometry relative="1" as="geometry">
            <Array as="points">
              <mxPoint x="530" y="710" />
              <mxPoint x="530" y="405" />
            </Array>
          </mxGeometry>
        </mxCell>
        <mxCell id="Bi12gaVqoK5WJrq5ELlC-18" value="messages" style="swimlane;fontStyle=0;childLayout=stackLayout;horizontal=1;startSize=30;horizontalStack=0;resizeParent=1;resizeParentMax=0;resizeLast=0;collapsible=1;marginBottom=0;whiteSpace=wrap;html=1;strokeWidth=2;fillColor=#d5e8d4;strokeColor=#82b366;container=0;" vertex="1" parent="WIyWlLk6GJQsqaUBKTNV-1">
          <mxGeometry x="260" y="100" width="210" height="90" as="geometry" />
        </mxCell>
        <mxCell id="Bi12gaVqoK5WJrq5ELlC-19" value="content_messages" style="text;strokeColor=#82b366;fillColor=#d5e8d4;align=left;verticalAlign=middle;spacingLeft=4;spacingRight=4;overflow=hidden;points=[[0,0.5],[1,0.5]];portConstraint=eastwest;rotatable=0;whiteSpace=wrap;html=1;strokeWidth=2;container=0;" vertex="1" parent="WIyWlLk6GJQsqaUBKTNV-1">
          <mxGeometry x="260" y="220" width="210" height="30" as="geometry" />
        </mxCell>
        <mxCell id="Bi12gaVqoK5WJrq5ELlC-20" value="sender_messages" style="text;strokeColor=#82b366;fillColor=#d5e8d4;align=left;verticalAlign=middle;spacingLeft=4;spacingRight=4;overflow=hidden;points=[[0,0.5],[1,0.5]];portConstraint=eastwest;rotatable=0;whiteSpace=wrap;html=1;strokeWidth=2;container=0;" vertex="1" parent="WIyWlLk6GJQsqaUBKTNV-1">
          <mxGeometry x="260" y="190" width="210" height="30" as="geometry" />
        </mxCell>
        <mxCell id="Bi12gaVqoK5WJrq5ELlC-21" value="date_messages" style="text;strokeColor=#82b366;fillColor=#d5e8d4;align=left;verticalAlign=middle;spacingLeft=4;spacingRight=4;overflow=hidden;points=[[0,0.5],[1,0.5]];portConstraint=eastwest;rotatable=0;whiteSpace=wrap;html=1;strokeWidth=2;container=0;" vertex="1" parent="WIyWlLk6GJQsqaUBKTNV-1">
          <mxGeometry x="260" y="250" width="210" height="30" as="geometry" />
        </mxCell>
        <mxCell id="Bi12gaVqoK5WJrq5ELlC-22" value="codemsg_messages" style="text;strokeColor=#82b366;fillColor=#d5e8d4;align=left;verticalAlign=middle;spacingLeft=4;spacingRight=4;overflow=hidden;points=[[0,0.5],[1,0.5]];portConstraint=eastwest;rotatable=0;whiteSpace=wrap;html=1;strokeWidth=2;container=0;" vertex="1" parent="WIyWlLk6GJQsqaUBKTNV-1">
          <mxGeometry x="260" y="280" width="210" height="30" as="geometry" />
        </mxCell>
        <mxCell id="Bi12gaVqoK5WJrq5ELlC-23" value="notifications" style="swimlane;fontStyle=0;childLayout=stackLayout;horizontal=1;startSize=30;horizontalStack=0;resizeParent=1;resizeParentMax=0;resizeLast=0;collapsible=1;marginBottom=0;whiteSpace=wrap;html=1;strokeWidth=2;fillColor=#e1d5e7;strokeColor=#9673a6;container=0;" vertex="1" parent="WIyWlLk6GJQsqaUBKTNV-1">
          <mxGeometry x="270" y="705" width="210" height="90" as="geometry" />
        </mxCell>
        <mxCell id="Bi12gaVqoK5WJrq5ELlC-24" value="msg_notifications" style="text;strokeColor=#9673a6;fillColor=#e1d5e7;align=left;verticalAlign=middle;spacingLeft=4;spacingRight=4;overflow=hidden;points=[[0,0.5],[1,0.5]];portConstraint=eastwest;rotatable=0;whiteSpace=wrap;html=1;strokeWidth=2;container=0;" vertex="1" parent="WIyWlLk6GJQsqaUBKTNV-1">
          <mxGeometry x="270" y="825" width="210" height="30" as="geometry" />
        </mxCell>
        <mxCell id="Bi12gaVqoK5WJrq5ELlC-25" value="head_notifications" style="text;strokeColor=#9673a6;fillColor=#e1d5e7;align=left;verticalAlign=middle;spacingLeft=4;spacingRight=4;overflow=hidden;points=[[0,0.5],[1,0.5]];portConstraint=eastwest;rotatable=0;whiteSpace=wrap;html=1;strokeWidth=2;container=0;" vertex="1" parent="WIyWlLk6GJQsqaUBKTNV-1">
          <mxGeometry x="270" y="795" width="210" height="30" as="geometry" />
        </mxCell>
        <mxCell id="Bi12gaVqoK5WJrq5ELlC-26" value="type_notifications" style="text;strokeColor=#9673a6;fillColor=#e1d5e7;align=left;verticalAlign=middle;spacingLeft=4;spacingRight=4;overflow=hidden;points=[[0,0.5],[1,0.5]];portConstraint=eastwest;rotatable=0;whiteSpace=wrap;html=1;strokeWidth=2;container=0;" vertex="1" parent="WIyWlLk6GJQsqaUBKTNV-1">
          <mxGeometry x="270" y="855" width="210" height="30" as="geometry" />
        </mxCell>
        <mxCell id="Bi12gaVqoK5WJrq5ELlC-27" value="status_notifications" style="text;strokeColor=#9673a6;fillColor=#e1d5e7;align=left;verticalAlign=middle;spacingLeft=4;spacingRight=4;overflow=hidden;points=[[0,0.5],[1,0.5]];portConstraint=eastwest;rotatable=0;whiteSpace=wrap;html=1;strokeWidth=2;container=0;" vertex="1" parent="WIyWlLk6GJQsqaUBKTNV-1">
          <mxGeometry x="270" y="885" width="210" height="30" as="geometry" />
        </mxCell>
        <mxCell id="Bi12gaVqoK5WJrq5ELlC-28" value="date_notifications" style="text;strokeColor=#9673a6;fillColor=#e1d5e7;align=left;verticalAlign=middle;spacingLeft=4;spacingRight=4;overflow=hidden;points=[[0,0.5],[1,0.5]];portConstraint=eastwest;rotatable=0;whiteSpace=wrap;html=1;strokeWidth=2;container=0;" vertex="1" parent="WIyWlLk6GJQsqaUBKTNV-1">
          <mxGeometry x="270" y="915" width="210" height="30" as="geometry" />
        </mxCell>
        <mxCell id="Bi12gaVqoK5WJrq5ELlC-29" value="noteid_notifications" style="text;strokeColor=#9673a6;fillColor=#e1d5e7;align=left;verticalAlign=middle;spacingLeft=4;spacingRight=4;overflow=hidden;points=[[0,0.5],[1,0.5]];portConstraint=eastwest;rotatable=0;whiteSpace=wrap;html=1;strokeWidth=2;container=0;" vertex="1" parent="WIyWlLk6GJQsqaUBKTNV-1">
          <mxGeometry x="270" y="975" width="210" height="30" as="geometry" />
        </mxCell>
        <mxCell id="Bi12gaVqoK5WJrq5ELlC-30" value="dispatcher_notifications" style="text;strokeColor=#9673a6;fillColor=#e1d5e7;align=left;verticalAlign=middle;spacingLeft=4;spacingRight=4;overflow=hidden;points=[[0,0.5],[1,0.5]];portConstraint=eastwest;rotatable=0;whiteSpace=wrap;html=1;strokeWidth=2;container=0;" vertex="1" parent="WIyWlLk6GJQsqaUBKTNV-1">
          <mxGeometry x="270" y="945" width="210" height="30" as="geometry" />
        </mxCell>
        <mxCell id="Bi12gaVqoK5WJrq5ELlC-31" value="id_notifications" style="text;strokeColor=#9673a6;fillColor=#e1d5e7;align=left;verticalAlign=middle;spacingLeft=4;spacingRight=4;overflow=hidden;points=[[0,0.5],[1,0.5]];portConstraint=eastwest;rotatable=0;whiteSpace=wrap;html=1;strokeWidth=2;container=0;" vertex="1" parent="WIyWlLk6GJQsqaUBKTNV-1">
          <mxGeometry x="270" y="735" width="210" height="30" as="geometry" />
        </mxCell>
        <mxCell id="Bi12gaVqoK5WJrq5ELlC-32" value="user_notifications" style="text;strokeColor=#9673a6;fillColor=#e1d5e7;align=left;verticalAlign=middle;spacingLeft=4;spacingRight=4;overflow=hidden;points=[[0,0.5],[1,0.5]];portConstraint=eastwest;rotatable=0;whiteSpace=wrap;html=1;strokeWidth=2;container=0;" vertex="1" parent="WIyWlLk6GJQsqaUBKTNV-1">
          <mxGeometry x="270" y="765" width="210" height="30" as="geometry" />
        </mxCell>
        <mxCell id="Bi12gaVqoK5WJrq5ELlC-33" value="users" style="swimlane;fontStyle=0;childLayout=stackLayout;horizontal=1;startSize=30;horizontalStack=0;resizeParent=1;resizeParentMax=0;resizeLast=0;collapsible=1;marginBottom=0;whiteSpace=wrap;html=1;strokeWidth=2;fillColor=#bac8d3;strokeColor=#23445d;container=0;" vertex="1" parent="WIyWlLk6GJQsqaUBKTNV-1">
          <mxGeometry x="600" y="485" width="210" height="210" as="geometry" />
        </mxCell>
        <mxCell id="Bi12gaVqoK5WJrq5ELlC-34" value="id_storage_members_storages" style="text;strokeColor=#56517e;fillColor=#d0cee2;align=left;verticalAlign=middle;spacingLeft=4;spacingRight=4;overflow=hidden;points=[[0,0.5],[1,0.5]];portConstraint=eastwest;rotatable=0;whiteSpace=wrap;html=1;strokeWidth=2;container=0;" vertex="1" parent="Bi12gaVqoK5WJrq5ELlC-33">
          <mxGeometry y="30" width="210" height="30" as="geometry" />
        </mxCell>
        <mxCell id="Bi12gaVqoK5WJrq5ELlC-35" value="id_members_storages" style="text;strokeColor=#56517e;fillColor=#d0cee2;align=left;verticalAlign=middle;spacingLeft=4;spacingRight=4;overflow=hidden;points=[[0,0.5],[1,0.5]];portConstraint=eastwest;rotatable=0;whiteSpace=wrap;html=1;strokeWidth=2;container=0;" vertex="1" parent="Bi12gaVqoK5WJrq5ELlC-33">
          <mxGeometry y="60" width="210" height="30" as="geometry" />
        </mxCell>
        <mxCell id="Bi12gaVqoK5WJrq5ELlC-36" value="id_user_members_storages" style="text;strokeColor=#56517e;fillColor=#d0cee2;align=left;verticalAlign=middle;spacingLeft=4;spacingRight=4;overflow=hidden;points=[[0,0.5],[1,0.5]];portConstraint=eastwest;rotatable=0;whiteSpace=wrap;html=1;strokeWidth=2;container=0;" vertex="1" parent="Bi12gaVqoK5WJrq5ELlC-33">
          <mxGeometry y="90" width="210" height="30" as="geometry" />
        </mxCell>
        <mxCell id="Bi12gaVqoK5WJrq5ELlC-37" value="members_storages" style="swimlane;fontStyle=0;childLayout=stackLayout;horizontal=1;startSize=30;horizontalStack=0;resizeParent=1;resizeParentMax=0;resizeLast=0;collapsible=1;marginBottom=0;whiteSpace=wrap;html=1;strokeWidth=2;fillColor=#d0cee2;strokeColor=#56517e;container=0;" vertex="1" parent="Bi12gaVqoK5WJrq5ELlC-33">
          <mxGeometry y="120" width="210" height="90" as="geometry" />
        </mxCell>
        <mxCell id="Bi12gaVqoK5WJrq5ELlC-38" value="firstname_users" style="text;strokeColor=#23445d;fillColor=#bac8d3;align=left;verticalAlign=middle;spacingLeft=4;spacingRight=4;overflow=hidden;points=[[0,0.5],[1,0.5]];portConstraint=eastwest;rotatable=0;whiteSpace=wrap;html=1;strokeWidth=2;container=0;" vertex="1" parent="WIyWlLk6GJQsqaUBKTNV-1">
          <mxGeometry x="600" y="605" width="210" height="30" as="geometry" />
        </mxCell>
        <mxCell id="Bi12gaVqoK5WJrq5ELlC-39" value="password_users" style="text;strokeColor=#23445d;fillColor=#bac8d3;align=left;verticalAlign=middle;spacingLeft=4;spacingRight=4;overflow=hidden;points=[[0,0.5],[1,0.5]];portConstraint=eastwest;rotatable=0;whiteSpace=wrap;html=1;strokeWidth=2;container=0;" vertex="1" parent="WIyWlLk6GJQsqaUBKTNV-1">
          <mxGeometry x="600" y="575" width="210" height="30" as="geometry" />
        </mxCell>
        <mxCell id="Bi12gaVqoK5WJrq5ELlC-40" value="lastname_users" style="text;strokeColor=#23445d;fillColor=#bac8d3;align=left;verticalAlign=middle;spacingLeft=4;spacingRight=4;overflow=hidden;points=[[0,0.5],[1,0.5]];portConstraint=eastwest;rotatable=0;whiteSpace=wrap;html=1;strokeWidth=2;container=0;" vertex="1" parent="WIyWlLk6GJQsqaUBKTNV-1">
          <mxGeometry x="600" y="635" width="210" height="30" as="geometry" />
        </mxCell>
        <mxCell id="Bi12gaVqoK5WJrq5ELlC-41" value="dateofbirth_users" style="text;strokeColor=#23445d;fillColor=#bac8d3;align=left;verticalAlign=middle;spacingLeft=4;spacingRight=4;overflow=hidden;points=[[0,0.5],[1,0.5]];portConstraint=eastwest;rotatable=0;whiteSpace=wrap;html=1;strokeWidth=2;container=0;" vertex="1" parent="WIyWlLk6GJQsqaUBKTNV-1">
          <mxGeometry x="600" y="665" width="210" height="30" as="geometry" />
        </mxCell>
        <mxCell id="Bi12gaVqoK5WJrq5ELlC-42" style="edgeStyle=orthogonalEdgeStyle;rounded=0;orthogonalLoop=1;jettySize=auto;html=1;entryX=0;entryY=0.5;entryDx=0;entryDy=0;strokeColor=#b85450;strokeWidth=2;" edge="1" parent="WIyWlLk6GJQsqaUBKTNV-1" source="Bi12gaVqoK5WJrq5ELlC-43" target="Bi12gaVqoK5WJrq5ELlC-4">
          <mxGeometry relative="1" as="geometry">
            <Array as="points">
              <mxPoint x="530" y="710" />
              <mxPoint x="530" y="900" />
            </Array>
          </mxGeometry>
        </mxCell>
        <mxCell id="Bi12gaVqoK5WJrq5ELlC-43" value="safeid_users" style="text;strokeColor=#23445d;fillColor=#bac8d3;align=left;verticalAlign=middle;spacingLeft=4;spacingRight=4;overflow=hidden;points=[[0,0.5],[1,0.5]];portConstraint=eastwest;rotatable=0;whiteSpace=wrap;html=1;strokeWidth=2;container=0;" vertex="1" parent="WIyWlLk6GJQsqaUBKTNV-1">
          <mxGeometry x="600" y="695" width="210" height="30" as="geometry" />
        </mxCell>
        <mxCell id="Bi12gaVqoK5WJrq5ELlC-44" value="type_users" style="text;strokeColor=#23445d;fillColor=#bac8d3;align=left;verticalAlign=middle;spacingLeft=4;spacingRight=4;overflow=hidden;points=[[0,0.5],[1,0.5]];portConstraint=eastwest;rotatable=0;whiteSpace=wrap;html=1;strokeWidth=2;container=0;" vertex="1" parent="WIyWlLk6GJQsqaUBKTNV-1">
          <mxGeometry x="600" y="725" width="210" height="30" as="geometry" />
        </mxCell>
        <mxCell id="Bi12gaVqoK5WJrq5ELlC-45" value="members_storages" style="swimlane;fontStyle=0;childLayout=stackLayout;horizontal=1;startSize=30;horizontalStack=0;resizeParent=1;resizeParentMax=0;resizeLast=0;collapsible=1;marginBottom=0;whiteSpace=wrap;html=1;strokeWidth=2;fillColor=#d0cee2;strokeColor=#56517e;container=0;" vertex="1" parent="WIyWlLk6GJQsqaUBKTNV-1">
          <mxGeometry x="600" y="240" width="210" height="90" as="geometry" />
        </mxCell>
        <mxCell id="Bi12gaVqoK5WJrq5ELlC-46" value="date_members_storages" style="text;strokeColor=#56517e;fillColor=#d0cee2;align=left;verticalAlign=middle;spacingLeft=4;spacingRight=4;overflow=hidden;points=[[0,0.5],[1,0.5]];portConstraint=eastwest;rotatable=0;whiteSpace=wrap;html=1;strokeWidth=2;container=0;" vertex="1" parent="WIyWlLk6GJQsqaUBKTNV-1">
          <mxGeometry x="600" y="360" width="210" height="30" as="geometry" />
        </mxCell>
        <mxCell id="Bi12gaVqoK5WJrq5ELlC-47" value="id_user_members_storages" style="text;strokeColor=#56517e;fillColor=#d0cee2;align=left;verticalAlign=middle;spacingLeft=4;spacingRight=4;overflow=hidden;points=[[0,0.5],[1,0.5]];portConstraint=eastwest;rotatable=0;whiteSpace=wrap;html=1;strokeWidth=2;container=0;" vertex="1" parent="WIyWlLk6GJQsqaUBKTNV-1">
          <mxGeometry x="600" y="330" width="210" height="30" as="geometry" />
        </mxCell>
        <mxCell id="Bi12gaVqoK5WJrq5ELlC-48" value="modificator_members_storages" style="text;strokeColor=#56517e;fillColor=#d0cee2;align=left;verticalAlign=middle;spacingLeft=4;spacingRight=4;overflow=hidden;points=[[0,0.5],[1,0.5]];portConstraint=eastwest;rotatable=0;whiteSpace=wrap;html=1;strokeWidth=2;container=0;" vertex="1" parent="WIyWlLk6GJQsqaUBKTNV-1">
          <mxGeometry x="600" y="390" width="210" height="30" as="geometry" />
        </mxCell>
        <mxCell id="Bi12gaVqoK5WJrq5ELlC-49" value="active_members_storages" style="text;strokeColor=#56517e;fillColor=#d0cee2;align=left;verticalAlign=middle;spacingLeft=4;spacingRight=4;overflow=hidden;points=[[0,0.5],[1,0.5]];portConstraint=eastwest;rotatable=0;whiteSpace=wrap;html=1;strokeWidth=2;container=0;" vertex="1" parent="WIyWlLk6GJQsqaUBKTNV-1">
          <mxGeometry x="600" y="420" width="210" height="30" as="geometry" />
        </mxCell>
        <mxCell id="Bi12gaVqoK5WJrq5ELlC-50" style="edgeStyle=orthogonalEdgeStyle;rounded=0;orthogonalLoop=1;jettySize=auto;html=1;entryX=0;entryY=0.5;entryDx=0;entryDy=0;" edge="1" parent="WIyWlLk6GJQsqaUBKTNV-1" source="Bi12gaVqoK5WJrq5ELlC-54" target="Bi12gaVqoK5WJrq5ELlC-56">
          <mxGeometry relative="1" as="geometry">
            <Array as="points">
              <mxPoint x="230" y="495" />
              <mxPoint x="230" y="665" />
            </Array>
          </mxGeometry>
        </mxCell>
        <mxCell id="Bi12gaVqoK5WJrq5ELlC-51" value="friends" style="swimlane;fontStyle=0;childLayout=stackLayout;horizontal=1;startSize=30;horizontalStack=0;resizeParent=1;resizeParentMax=0;resizeLast=0;collapsible=1;marginBottom=0;whiteSpace=wrap;html=1;strokeWidth=2;fillColor=#dae8fc;strokeColor=#6c8ebf;container=0;" vertex="1" parent="WIyWlLk6GJQsqaUBKTNV-1">
          <mxGeometry x="260" y="330" width="210" height="90" as="geometry" />
        </mxCell>
        <mxCell id="Bi12gaVqoK5WJrq5ELlC-52" value="status_friends" style="text;strokeColor=#6c8ebf;fillColor=#dae8fc;align=left;verticalAlign=middle;spacingLeft=4;spacingRight=4;overflow=hidden;points=[[0,0.5],[1,0.5]];portConstraint=eastwest;rotatable=0;whiteSpace=wrap;html=1;strokeWidth=2;container=0;" vertex="1" parent="WIyWlLk6GJQsqaUBKTNV-1">
          <mxGeometry x="260" y="450" width="210" height="30" as="geometry" />
        </mxCell>
        <mxCell id="Bi12gaVqoK5WJrq5ELlC-53" value="id_user_2_friends" style="text;strokeColor=#6c8ebf;fillColor=#dae8fc;align=left;verticalAlign=middle;spacingLeft=4;spacingRight=4;overflow=hidden;points=[[0,0.5],[1,0.5]];portConstraint=eastwest;rotatable=0;whiteSpace=wrap;html=1;strokeWidth=2;container=0;" vertex="1" parent="WIyWlLk6GJQsqaUBKTNV-1">
          <mxGeometry x="260" y="420" width="210" height="30" as="geometry" />
        </mxCell>
        <mxCell id="Bi12gaVqoK5WJrq5ELlC-54" value="noteid_notifications_friends" style="text;strokeColor=#6c8ebf;fillColor=#dae8fc;align=left;verticalAlign=middle;spacingLeft=4;spacingRight=4;overflow=hidden;points=[[0,0.5],[1,0.5]];portConstraint=eastwest;rotatable=0;whiteSpace=wrap;html=1;strokeWidth=2;container=0;" vertex="1" parent="WIyWlLk6GJQsqaUBKTNV-1">
          <mxGeometry x="260" y="480" width="210" height="30" as="geometry" />
        </mxCell>
        <mxCell id="Bi12gaVqoK5WJrq5ELlC-55" value="conversations" style="swimlane;fontStyle=0;childLayout=stackLayout;horizontal=1;startSize=30;horizontalStack=0;resizeParent=1;resizeParentMax=0;resizeLast=0;collapsible=1;marginBottom=0;whiteSpace=wrap;html=1;strokeWidth=2;fillColor=#b0e3e6;strokeColor=#0e8088;container=0;" vertex="1" parent="WIyWlLk6GJQsqaUBKTNV-1">
          <mxGeometry x="260" y="530" width="210" height="90" as="geometry" />
        </mxCell>
        <mxCell id="Bi12gaVqoK5WJrq5ELlC-56" value="codemsg_conversations" style="text;strokeColor=#0e8088;fillColor=#b0e3e6;align=left;verticalAlign=middle;spacingLeft=4;spacingRight=4;overflow=hidden;points=[[0,0.5],[1,0.5]];portConstraint=eastwest;rotatable=0;whiteSpace=wrap;html=1;strokeWidth=2;container=0;" vertex="1" parent="WIyWlLk6GJQsqaUBKTNV-1">
          <mxGeometry x="260" y="650" width="210" height="30" as="geometry" />
        </mxCell>
        <mxCell id="Bi12gaVqoK5WJrq5ELlC-57" value="ppl2_conversations" style="text;strokeColor=#0e8088;fillColor=#b0e3e6;align=left;verticalAlign=middle;spacingLeft=4;spacingRight=4;overflow=hidden;points=[[0,0.5],[1,0.5]];portConstraint=eastwest;rotatable=0;whiteSpace=wrap;html=1;strokeWidth=2;container=0;" vertex="1" parent="WIyWlLk6GJQsqaUBKTNV-1">
          <mxGeometry x="260" y="620" width="210" height="30" as="geometry" />
        </mxCell>
        <mxCell id="Bi12gaVqoK5WJrq5ELlC-58" value="id_conversations" style="text;strokeColor=#0e8088;fillColor=#b0e3e6;align=left;verticalAlign=middle;spacingLeft=4;spacingRight=4;overflow=hidden;points=[[0,0.5],[1,0.5]];portConstraint=eastwest;rotatable=0;whiteSpace=wrap;html=1;strokeWidth=2;container=0;" vertex="1" parent="WIyWlLk6GJQsqaUBKTNV-1">
          <mxGeometry x="260" y="560" width="210" height="30" as="geometry" />
        </mxCell>
        <mxCell id="Bi12gaVqoK5WJrq5ELlC-59" value="ppl1_conversations" style="text;strokeColor=#0e8088;fillColor=#b0e3e6;align=left;verticalAlign=middle;spacingLeft=4;spacingRight=4;overflow=hidden;points=[[0,0.5],[1,0.5]];portConstraint=eastwest;rotatable=0;whiteSpace=wrap;html=1;strokeWidth=2;container=0;" vertex="1" parent="WIyWlLk6GJQsqaUBKTNV-1">
          <mxGeometry x="260" y="590" width="210" height="30" as="geometry" />
        </mxCell>
        <mxCell id="Bi12gaVqoK5WJrq5ELlC-60" value="id_friends" style="text;strokeColor=#6c8ebf;fillColor=#dae8fc;align=left;verticalAlign=middle;spacingLeft=4;spacingRight=4;overflow=hidden;points=[[0,0.5],[1,0.5]];portConstraint=eastwest;rotatable=0;whiteSpace=wrap;html=1;strokeWidth=2;container=0;" vertex="1" parent="WIyWlLk6GJQsqaUBKTNV-1">
          <mxGeometry x="260" y="360" width="210" height="30" as="geometry" />
        </mxCell>
        <mxCell id="Bi12gaVqoK5WJrq5ELlC-61" value="id_user_1_friends" style="text;strokeColor=#6c8ebf;fillColor=#dae8fc;align=left;verticalAlign=middle;spacingLeft=4;spacingRight=4;overflow=hidden;points=[[0,0.5],[1,0.5]];portConstraint=eastwest;rotatable=0;whiteSpace=wrap;html=1;strokeWidth=2;container=0;" vertex="1" parent="WIyWlLk6GJQsqaUBKTNV-1">
          <mxGeometry x="260" y="390" width="210" height="30" as="geometry" />
        </mxCell>
        <mxCell id="Bi12gaVqoK5WJrq5ELlC-62" value="id_messages" style="text;strokeColor=#82b366;fillColor=#d5e8d4;align=left;verticalAlign=middle;spacingLeft=4;spacingRight=4;overflow=hidden;points=[[0,0.5],[1,0.5]];portConstraint=eastwest;rotatable=0;whiteSpace=wrap;html=1;strokeWidth=2;container=0;" vertex="1" parent="WIyWlLk6GJQsqaUBKTNV-1">
          <mxGeometry x="260" y="130" width="210" height="30" as="geometry" />
        </mxCell>
        <mxCell id="Bi12gaVqoK5WJrq5ELlC-63" value="reciver_messages" style="text;strokeColor=#82b366;fillColor=#d5e8d4;align=left;verticalAlign=middle;spacingLeft=4;spacingRight=4;overflow=hidden;points=[[0,0.5],[1,0.5]];portConstraint=eastwest;rotatable=0;whiteSpace=wrap;html=1;strokeWidth=2;container=0;" vertex="1" parent="WIyWlLk6GJQsqaUBKTNV-1">
          <mxGeometry x="260" y="160" width="210" height="30" as="geometry" />
        </mxCell>
        <mxCell id="Bi12gaVqoK5WJrq5ELlC-64" value="id_users" style="text;strokeColor=#23445d;fillColor=#bac8d3;align=left;verticalAlign=middle;spacingLeft=4;spacingRight=4;overflow=hidden;points=[[0,0.5],[1,0.5]];portConstraint=eastwest;rotatable=0;whiteSpace=wrap;html=1;strokeWidth=2;container=0;" vertex="1" parent="WIyWlLk6GJQsqaUBKTNV-1">
          <mxGeometry x="600" y="515" width="210" height="30" as="geometry" />
        </mxCell>
        <mxCell id="Bi12gaVqoK5WJrq5ELlC-65" value="email_users" style="text;strokeColor=#23445d;fillColor=#bac8d3;align=left;verticalAlign=middle;spacingLeft=4;spacingRight=4;overflow=hidden;points=[[0,0.5],[1,0.5]];portConstraint=eastwest;rotatable=0;whiteSpace=wrap;html=1;strokeWidth=2;container=0;" vertex="1" parent="WIyWlLk6GJQsqaUBKTNV-1">
          <mxGeometry x="600" y="545" width="210" height="30" as="geometry" />
        </mxCell>
        <mxCell id="Bi12gaVqoK5WJrq5ELlC-66" value="id_members_storages" style="text;strokeColor=#56517e;fillColor=#d0cee2;align=left;verticalAlign=middle;spacingLeft=4;spacingRight=4;overflow=hidden;points=[[0,0.5],[1,0.5]];portConstraint=eastwest;rotatable=0;whiteSpace=wrap;html=1;strokeWidth=2;container=0;" vertex="1" parent="WIyWlLk6GJQsqaUBKTNV-1">
          <mxGeometry x="600" y="270" width="210" height="30" as="geometry" />
        </mxCell>
        <mxCell id="Bi12gaVqoK5WJrq5ELlC-67" value="id_storage_members_storages" style="text;strokeColor=#56517e;fillColor=#d0cee2;align=left;verticalAlign=middle;spacingLeft=4;spacingRight=4;overflow=hidden;points=[[0,0.5],[1,0.5]];portConstraint=eastwest;rotatable=0;whiteSpace=wrap;html=1;strokeWidth=2;container=0;" vertex="1" parent="WIyWlLk6GJQsqaUBKTNV-1">
          <mxGeometry x="600" y="300" width="210" height="30" as="geometry" />
        </mxCell>
      </root>
    </mxGraphModel>
  </diagram>
</mxfile>
